# xmcd
#
# Track frame offsets:
#	150
#	12982
#	25927
#	41950
#	56387
#	72688
#	88076
#	107598
#	121820
#	135619
#	148842
#	167360
#	179409
#	191075
#	203683
#	218026
#	235565
#	252631
#	267514
#	280313
#	294527
#	310095
#
# Disc length: 4436 seconds
#
# Revision: 1
# Processed by: cddbd v1.5.2PL0 Copyright (c) Steve Scherf et al.
# Submitted via: audiograbber 1.83.01
#
DISCID=4f115216
DTITLE=Varios - Direito de Viver 16 - Disco 01
DYEAR=2017
DGENRE=Sertanejo
TTITLE0=Na Hora da Raiva - Henrique and Juliano
TTITLE1=10% - Maiara and Maraisa
TTITLE2=Págima de Amigos - Chitãozinho and Xororó
TTITLE3=Sosseguei - Jorge and Mateus
TTITLE4=Que Pena Que Acabou - Gusttavo Lima
TTITLE5=Momentos - Victor and Leo
TTITLE6=Olhos do Céu - Paula Fernandes
TTITLE7=Sapequinha - Eduardo Costa
TTITLE8=Medo do Espelho - Rionegro and Solimões
TTITLE9=Aquele 1% - Marcos and Belutti
TTITLE10=Destino - Lucas Lucco
TTITLE11=Eu e Você de Novo - Edson and Hudson
TTITLE12=Você Merece Cachê - Israel Novaes
TTITLE13=KM 45 - Sérgio Reis
TTITLE14=Bem Longe de Você - Althair and Alexandre
TTITLE15=Curtição - Zé Felipe
TTITLE16=Podia Ser Nós Dois - Kleo Dibah and Rafael
TTITLE17=Apenas Mais Uma de Amor - Daniel
TTITLE18=Não Tem Pra Ninguém - Michel Teló
TTITLE19=A Marvada Pinga - Barra da Saia
TTITLE20=Caipira Memo - Luiz Henrique and Fernando
TTITLE21=Minha História - Juliano Cezar
EXTD=
EXTT0=
EXTT1=
EXTT2=
EXTT3=
EXTT4=
EXTT5=
EXTT6=
EXTT7=
EXTT8=
EXTT9=
EXTT10=
EXTT11=
EXTT12=
EXTT13=
EXTT14=
EXTT15=
EXTT16=
EXTT17=
EXTT18=
EXTT19=
EXTT20=
EXTT21=
PLAYORDER=
